<svg width="30" height="32" viewBox="0 0 30 32" fill="none" xmlns="http://www.w3.org/2000/svg">
<path d="M2.33333 28.6667H3.91667V1.74999C3.91667 1.33006 4.08348 0.927336 4.38041 0.630404C4.67735 0.333471 5.08007 0.166656 5.5 0.166656H24.5C24.9199 0.166656 25.3227 0.333471 25.6196 0.630404C25.9165 0.927336 26.0833 1.33006 26.0833 1.74999V28.6667H27.6667C28.0866 28.6667 28.4893 28.8335 28.7863 29.1304C29.0832 29.4273 29.25 29.8301 29.25 30.25C29.25 30.6699 29.0832 31.0726 28.7863 31.3696C28.4893 31.6665 28.0866 31.8333 27.6667 31.8333H2.33333C1.91341 31.8333 1.51068 31.6665 1.21375 31.3696C0.916813 31.0726 0.75 30.6699 0.75 30.25C0.75 29.8301 0.916813 29.4273 1.21375 29.1304C1.51068 28.8335 1.91341 28.6667 2.33333 28.6667ZM22.9167 14.4167C22.9167 13.9967 22.7499 13.594 22.4529 13.2971C22.156 13.0001 21.7533 12.8333 21.3333 12.8333C20.9134 12.8333 20.5107 13.0001 20.2137 13.2971C19.9168 13.594 19.75 13.9967 19.75 14.4167V17.5833C19.75 18.0032 19.9168 18.406 20.2137 18.7029C20.5107 18.9998 20.9134 19.1667 21.3333 19.1667C21.7533 19.1667 22.156 18.9998 22.4529 18.7029C22.7499 18.406 22.9167 18.0032 22.9167 17.5833V14.4167Z" fill="#FFD325"/>
</svg>
