<svg width="31" height="31" viewBox="0 0 31 31" fill="none" xmlns="http://www.w3.org/2000/svg">
<path fill-rule="evenodd" clip-rule="evenodd" d="M8.57301 1.48223C10.467 1.06132 12.7646 0.916656 15.5 0.916656C18.2354 0.916656 20.533 1.06132 22.4269 1.48223C24.3375 1.90682 25.9253 2.63166 27.1468 3.85313C28.3683 5.0746 29.0931 6.66252 29.5178 8.57301C29.9387 10.467 30.0833 12.7646 30.0833 15.5C30.0833 18.2354 29.9387 20.533 29.5178 22.4269C29.0931 24.3375 28.3683 25.9253 27.1468 27.1468C25.9253 28.3683 24.3375 29.0931 22.4269 29.5178C20.533 29.9387 18.2354 30.0833 15.5 30.0833C12.7646 30.0833 10.467 29.9387 8.57301 29.5178C6.66252 29.0931 5.0746 28.3683 3.85313 27.1468C2.63166 25.9253 1.90682 24.3375 1.48223 22.4269C1.06132 20.533 0.916656 18.2354 0.916656 15.5C0.916656 12.7646 1.06132 10.467 1.48223 8.57301C1.90682 6.66252 2.63166 5.0746 3.85313 3.85313C5.0746 2.63166 6.66252 1.90682 8.57301 1.48223ZM20.9062 11.5521C21.4757 12.1216 21.4757 13.045 20.9062 13.6145L15.5354 18.9853C14.7104 19.8102 13.3729 19.8102 12.5479 18.9853L10.0938 16.5312C9.52428 15.9617 9.52428 15.0383 10.0938 14.4688C10.6633 13.8993 11.5867 13.8993 12.1562 14.4688L14.0417 16.3543L18.8438 11.5521C19.4133 10.9826 20.3367 10.9826 20.9062 11.5521Z" fill="#7CBD5C"/>
</svg>
