<svg width="33" height="35" viewBox="0 0 33 35" fill="none" xmlns="http://www.w3.org/2000/svg">
<path d="M5.33333 31.6667H6.91667V4.74999C6.91667 4.33006 7.08348 3.92734 7.38041 3.6304C7.67735 3.33347 8.08007 3.16666 8.5 3.16666H27.5C27.9199 3.16666 28.3227 3.33347 28.6196 3.6304C28.9165 3.92734 29.0833 4.33006 29.0833 4.74999V31.6667H30.6667C31.0866 31.6667 31.4893 31.8335 31.7863 32.1304C32.0832 32.4273 32.25 32.8301 32.25 33.25C32.25 33.6699 32.0832 34.0726 31.7863 34.3696C31.4893 34.6665 31.0866 34.8333 30.6667 34.8333H5.33333C4.91341 34.8333 4.51068 34.6665 4.21375 34.3696C3.91681 34.0726 3.75 33.6699 3.75 33.25C3.75 32.8301 3.91681 32.4273 4.21375 32.1304C4.51068 31.8335 4.91341 31.6667 5.33333 31.6667ZM25.9167 17.4167C25.9167 16.9967 25.7499 16.594 25.4529 16.2971C25.156 16.0001 24.7533 15.8333 24.3333 15.8333C23.9134 15.8333 23.5107 16.0001 23.2137 16.2971C22.9168 16.594 22.75 16.9967 22.75 17.4167V20.5833C22.75 21.0032 22.9168 21.406 23.2137 21.7029C23.5107 21.9998 23.9134 22.1667 24.3333 22.1667C24.7533 22.1667 25.156 21.9998 25.4529 21.7029C25.7499 21.406 25.9167 21.0032 25.9167 20.5833V17.4167Z" fill="#FFD325"/>
<circle cx="10" cy="10" r="10" fill="#FF6CE6"/>
</svg>
