<svg width="36" height="26" viewBox="0 0 36 26" fill="none" xmlns="http://www.w3.org/2000/svg">
<path d="M8.49999 8.24999V14.5833M14.8333 8.24999V14.5833M30.6667 13H33.8333M30.6667 6.66666L33.8333 3.49999M33.8333 22.5L30.6667 19.3333M7.23332 24.0833H19.2667C21.0401 24.0833 21.927 24.0833 22.6043 23.7382C23.2001 23.4346 23.6846 22.9501 23.9882 22.3543C24.3333 21.677 24.3333 20.7901 24.3333 19.0167V6.98332C24.3333 5.20983 24.3333 4.32307 23.9882 3.64569C23.6846 3.04983 23.2001 2.5654 22.6043 2.26181C21.927 1.91666 21.0401 1.91666 19.2667 1.91666H7.23332C5.45983 1.91666 4.57307 1.91666 3.89569 2.26181C3.29983 2.5654 2.8154 3.04983 2.51181 3.64569C2.16666 4.32307 2.16666 5.20982 2.16666 6.98332V19.0167C2.16666 20.7901 2.16666 21.677 2.51181 22.3543C2.8154 22.9501 3.29983 23.4346 3.89569 23.7382C4.57307 24.0833 5.45982 24.0833 7.23332 24.0833Z" stroke="#FFD325" stroke-width="3" stroke-linecap="round" stroke-linejoin="round"/>
</svg>
