<svg width="24" height="34" viewBox="0 0 24 34" fill="none" xmlns="http://www.w3.org/2000/svg">
<path d="M19.7409 13.681C16.4356 9.36708 13.2981 6.4538 13.0181 0.739306C13.0181 0.571233 12.9621 0.459184 12.85 0.347135C12.794 0.0670121 12.5139 -0.101061 12.2338 0.0670121C11.8976 0.0670121 11.6176 0.29111 11.6176 0.683282C4.55849 8.30261 -7.37473 27.6311 7.63984 33.1774C14.4188 35.6986 22.0942 32.2811 23.4387 24.8858C24.167 20.9081 22.094 16.7064 19.7409 13.681ZM7.69577 29.5919C6.07106 28.6395 5.06262 26.7348 4.5584 25.0539C4.3343 24.2136 4.22225 23.3733 4.27828 22.5329C4.61442 21.0763 5.06262 19.6756 5.56684 18.2751C5.84696 19.5075 6.40721 20.7401 7.19155 21.6364C8.98434 23.5975 12.6259 24.7739 13.6344 27.239C14.2506 28.7516 11.8416 30.0402 10.8331 30.3763C9.76868 30.7124 8.59207 30.1523 7.69577 29.5919Z" fill="#00BEFD"/>
</svg>
