<svg width="34" height="32" viewBox="0 0 34 32" fill="none" xmlns="http://www.w3.org/2000/svg">
<path d="M32.4541 22.2067L22.3208 3.96666C20.9591 1.51249 19.075 0.166656 17.0008 0.166656C14.9266 0.166656 13.0424 1.51249 11.6807 3.96666L1.54741 22.2067C0.264909 24.5342 0.12241 26.7667 1.15158 28.5242C2.18074 30.2817 4.20741 31.2475 6.86741 31.2475H27.1341C29.7941 31.2475 31.8208 30.2817 32.85 28.5242C33.8791 26.7667 33.7366 24.5183 32.4541 22.2067ZM15.8133 11.25C15.8133 10.6008 16.3516 10.0625 17.0008 10.0625C17.65 10.0625 18.1883 10.6008 18.1883 11.25V19.1667C18.1883 19.8158 17.65 20.3542 17.0008 20.3542C16.3516 20.3542 15.8133 19.8158 15.8133 19.1667V11.25ZM18.125 25.0408C18.0458 25.1042 17.9666 25.1675 17.8875 25.2308C17.7925 25.2942 17.6975 25.3417 17.6025 25.3733C17.5075 25.4208 17.4125 25.4525 17.3016 25.4683C17.2066 25.4841 17.0958 25.5 17.0008 25.5C16.9058 25.5 16.795 25.4841 16.6841 25.4683C16.5891 25.4525 16.4941 25.4208 16.3991 25.3733C16.3041 25.3417 16.2091 25.2942 16.1141 25.2308C16.035 25.1675 15.9558 25.1042 15.8766 25.0408C15.5916 24.74 15.4175 24.3283 15.4175 23.9167C15.4175 23.505 15.5916 23.0933 15.8766 22.7925C15.9558 22.7292 16.035 22.6658 16.1141 22.6025C16.2091 22.5392 16.3041 22.4917 16.3991 22.46C16.4941 22.4125 16.5891 22.3808 16.6841 22.365C16.89 22.3175 17.1116 22.3175 17.3016 22.365C17.4125 22.3808 17.5075 22.4125 17.6025 22.46C17.6975 22.4917 17.7925 22.5392 17.8875 22.6025C17.9666 22.6658 18.0458 22.7292 18.125 22.7925C18.41 23.0933 18.5841 23.505 18.5841 23.9167C18.5841 24.3283 18.41 24.74 18.125 25.0408Z" fill="#FF5853"/>
</svg>
